<?xml version="1.0" encoding="UTF-8" standalone="no"?>
<!-- Created with Inkscape (http://www.inkscape.org/) -->

<svg
   xmlns:dc="http://purl.org/dc/elements/1.1/"
   xmlns:cc="http://creativecommons.org/ns#"
   xmlns:rdf="http://www.w3.org/1999/02/22-rdf-syntax-ns#"
   xmlns:svg="http://www.w3.org/2000/svg"
   xmlns="http://www.w3.org/2000/svg"
   xmlns:sodipodi="http://sodipodi.sourceforge.net/DTD/sodipodi-0.dtd"
   xmlns:inkscape="http://www.inkscape.org/namespaces/inkscape"
   id="svg4155"
   version="1.1"
   inkscape:version="0.91 r13725"
   xml:space="preserve"
   width="348.55905"
   height="113.79427"
   viewBox="0 0 348.55905 113.79427"
   sodipodi:docname="visallo-powered-by.svg"><metadata
     id="metadata4161"><rdf:RDF><cc:Work
         rdf:about=""><dc:format>image/svg+xml</dc:format><dc:type
           rdf:resource="http://purl.org/dc/dcmitype/StillImage" /><dc:title></dc:title></cc:Work></rdf:RDF></metadata><defs
     id="defs4159"><clipPath
       clipPathUnits="userSpaceOnUse"
       id="clipPath4177"><path
         d="M 0,792 612,792 612,0 0,0 0,792 Z"
         id="path4179"
         inkscape:connector-curvature="0" /></clipPath></defs><sodipodi:namedview
     pagecolor="#ffffff"
     bordercolor="#666666"
     borderopacity="1"
     objecttolerance="10"
     gridtolerance="10"
     guidetolerance="10"
     inkscape:pageopacity="0"
     inkscape:pageshadow="2"
     inkscape:window-width="1920"
     inkscape:window-height="994"
     id="namedview4157"
     showgrid="false"
     inkscape:zoom="1.1556553"
     inkscape:cx="298.61805"
     inkscape:cy="-97.761879"
     inkscape:window-x="0"
     inkscape:window-y="0"
     inkscape:window-maximized="1"
     inkscape:current-layer="g4163"
     fit-margin-top="0"
     fit-margin-left="0"
     fit-margin-right="0"
     fit-margin-bottom="0" /><g
     id="g4163"
     inkscape:groupmode="layer"
     inkscape:label="Visallo"
     transform="matrix(1.25,0,0,-1.25,-7.546885,981.18765)"><g
       id="g4167"
       transform="translate(131.91746,718.11525)"><path
         d="m 0,0 -11.877,17.867 3.832,0 9.338,-14.39 9.238,14.39 3.733,0 L 2.461,0 0,0 Z"
         style="fill:#414141;fill-opacity:1;fill-rule:nonzero;stroke:none"
         id="path4169"
         inkscape:connector-curvature="0" /></g><path
       d="m 150.97596,735.98285 3.375,0 0,-17.867 -3.375,0 0,17.867 z"
       style="fill:#414141;fill-opacity:1;fill-rule:nonzero;stroke:none"
       id="path4171"
       inkscape:connector-curvature="0" /><g
       id="g4181"
       transform="translate(160.36276,718.11525)"><path
         d="m 0,0 0,2.64 15.531,0 c 1.489,0 2.235,0.549 2.235,1.649 l 0,2.26 c 0,1.099 -0.746,1.648 -2.235,1.648 l -10.508,0 C 4.01,8.197 3.146,8.303 2.436,8.516 1.725,8.727 1.145,9.022 0.697,9.403 c -0.449,0.381 -0.773,0.833 -0.978,1.359 -0.201,0.523 -0.303,1.107 -0.303,1.75 l 0,1.041 c 0,0.642 0.102,1.226 0.303,1.751 0.205,0.524 0.529,0.977 0.978,1.358 0.448,0.381 1.028,0.676 1.739,0.889 0.71,0.211 1.574,0.316 2.587,0.316 l 15.127,0 0,-2.638 -15.127,0 c -1.488,0 -2.232,-0.551 -2.232,-1.651 l 0,-1.092 c 0,-1.099 0.744,-1.648 2.232,-1.648 l 10.508,0 c 1.016,0 1.879,-0.107 2.59,-0.318 0.709,-0.211 1.289,-0.508 1.736,-0.889 0.45,-0.379 0.776,-0.832 0.979,-1.358 0.203,-0.523 0.305,-1.107 0.305,-1.751 l 0,-2.208 c 0,-0.642 -0.102,-1.226 -0.305,-1.75 C 20.633,2.039 20.307,1.586 19.857,1.205 19.41,0.825 18.83,0.529 18.121,0.317 17.41,0.105 16.547,0 15.531,0 L 0,0 Z"
         style="fill:#414141;fill-opacity:1;fill-rule:nonzero;stroke:none"
         id="path4183"
         inkscape:connector-curvature="0" /></g><g
       id="g4185"
       transform="translate(207.50386,718.11525)"><path
         d="M 0,0 -9.213,14.391 -18.579,0 l -3.755,0 11.878,17.867 2.461,0 L 3.807,0 0,0 Z"
         style="fill:#414141;fill-opacity:1;fill-rule:nonzero;stroke:none"
         id="path4187"
         inkscape:connector-curvature="0" /></g><g
       id="g4189"
       transform="translate(216.04686,718.11525)"><path
         d="m 0,0 0,17.867 3.4,0 0,-15.227 14.493,0 0,-2.64 L 0,0 Z"
         style="fill:#414141;fill-opacity:1;fill-rule:nonzero;stroke:none"
         id="path4191"
         inkscape:connector-curvature="0" /></g><g
       id="g4193"
       transform="translate(239.01946,718.11525)"><path
         d="m 0,0 0,17.867 3.4,0 0,-15.227 14.493,0 0,-2.64 L 0,0 Z"
         style="fill:#414141;fill-opacity:1;fill-rule:nonzero;stroke:none"
         id="path4195"
         inkscape:connector-curvature="0" /></g><g
       id="g4197"
       transform="translate(281.50976,731.69335)"><path
         d="m 0,0 c 0,1.1 -0.746,1.65 -2.234,1.65 l -11.801,0 c -1.49,0 -2.233,-0.55 -2.233,-1.65 l 0,-9.289 c 0,-1.1 0.743,-1.649 2.233,-1.649 l 11.801,0 c 1.488,0 2.234,0.549 2.234,1.649 L 0,0 Z m -14.035,-13.578 c -1.016,0 -1.879,0.105 -2.588,0.317 -0.711,0.212 -1.291,0.508 -1.74,0.888 -0.448,0.381 -0.774,0.834 -0.977,1.359 -0.203,0.524 -0.305,1.108 -0.305,1.75 l 0,9.239 c 0,0.642 0.102,1.226 0.305,1.751 0.203,0.524 0.529,0.977 0.977,1.358 0.449,0.381 1.029,0.676 1.74,0.889 0.709,0.211 1.572,0.316 2.588,0.316 l 11.801,0 c 1.015,0 1.879,-0.105 2.589,-0.316 C 1.064,3.76 1.645,3.465 2.094,3.084 2.541,2.703 2.867,2.25 3.07,1.726 3.273,1.201 3.375,0.617 3.375,-0.025 l 0,-9.239 c 0,-0.642 -0.102,-1.226 -0.305,-1.75 -0.203,-0.525 -0.529,-0.978 -0.976,-1.359 -0.449,-0.38 -1.03,-0.676 -1.739,-0.888 -0.71,-0.212 -1.574,-0.317 -2.589,-0.317 l -11.801,0 z"
         style="fill:#414141;fill-opacity:1;fill-rule:nonzero;stroke:none"
         id="path4199"
         inkscape:connector-curvature="0" /></g><g
       id="g4201"
       transform="translate(59.812908,781.2316)"><path
         d="M 0,0 -2.174,3.587 C -4.667,3.732 -7.119,3.741 -9.54,3.691 l 2.755,-5.139 C -4.552,-0.931 -2.279,-0.436 0,0"
         style="fill:#414141;fill-opacity:1;fill-rule:nonzero;stroke:none"
         id="path4203"
         inkscape:connector-curvature="0" /></g><g
       id="g4205"
       transform="translate(49.076108,778.8381)"><path
         d="M 0,0 -3.058,5.937 C -6.181,5.754 -9.196,5.418 -12.125,4.979 l 3.766,-7.244 C -5.673,-1.473 -2.863,-0.732 0,0"
         style="fill:#414141;fill-opacity:1;fill-rule:nonzero;stroke:none"
         id="path4207"
         inkscape:connector-curvature="0" /></g><g
       id="g4209"
       transform="translate(70.884208,783.0373)"><path
         d="m 0,0 c -3.265,0.705 -6.495,1.148 -9.719,1.475 l 1.585,-2.766 C -5.453,-0.798 -2.752,-0.36 0,0"
         style="fill:#414141;fill-opacity:1;fill-rule:nonzero;stroke:none"
         id="path4211"
         inkscape:connector-curvature="0" /></g><g
       id="g4213"
       transform="translate(46.099508,725.6389)"><path
         d="m 0,0 c 2.805,-2.551 6.7,-6.484 9.724,-8.891 1.337,2.507 2.979,5.872 4.787,10.024 -2.15,1.859 -4.457,3.992 -6.389,5.771 L 0,0 Z"
         style="fill:#414141;fill-opacity:1;fill-rule:nonzero;stroke:none"
         id="path4215"
         inkscape:connector-curvature="0" /></g><g
       id="g4217"
       transform="translate(43.617108,743.1623)"><path
         d="m 0,0 -9.698,-5.307 c 2.739,-2.988 5.811,-6.457 8.815,-9.362 l 8.358,6.886 C 4.957,-5.314 2.166,-2.383 0,0"
         style="fill:#414141;fill-opacity:1;fill-rule:nonzero;stroke:none"
         id="path4219"
         inkscape:connector-curvature="0" /></g><g
       id="g4221"
       transform="translate(17.849508,779.4592)"><path
         d="m 0,0 c -4.18,-1.305 -9.878,-3.499 -11.812,-4.42 1.717,-2.793 3.691,-5.893 5.859,-9.144 2.898,1.294 6.861,2.953 11.606,4.748 L 0,0 Z"
         style="fill:#414141;fill-opacity:1;fill-rule:nonzero;stroke:none"
         id="path4223"
         inkscape:connector-curvature="0" /></g><g
       id="g4225"
       transform="translate(36.960808,775.3635)"><path
         d="M 0,0 -4.069,7.772 C -8.084,7.054 -11.797,6.197 -15.191,5.258 l 5.435,-8.545 C -6.743,-2.184 -3.48,-1.09 0,0"
         style="fill:#414141;fill-opacity:1;fill-rule:nonzero;stroke:none"
         id="path4227"
         inkscape:connector-curvature="0" /></g><g
       id="g4229"
       transform="translate(25.033108,767.2775)"><path
         d="m 0,0 -10.839,-4.682 c 2.212,-3.179 3.847,-5.359 6.404,-8.719 L 6.438,-9.322 C 3.84,-5.774 1.404,-2.227 0,0"
         style="fill:#414141;fill-opacity:1;fill-rule:nonzero;stroke:none"
         id="path4231"
         inkscape:connector-curvature="0" /></g><g
       id="g4233"
       transform="translate(34.014608,754.5158)"><path
         d="m 0,0 -10.683,-4.16 c 2.319,-2.938 4.966,-6.367 7.529,-9.319 l 9.907,5.27 C 4.395,-5.49 1.878,-2.422 0,0"
         style="fill:#414141;fill-opacity:1;fill-rule:nonzero;stroke:none"
         id="path4235"
         inkscape:connector-curvature="0" /></g><g
       id="g4237"
       transform="translate(82.809008,733.0666)"><path
         d="M 0,0 4.192,0.1 C 5.56,2.188 6.788,4.311 7.949,6.434 L 2.122,6.604 C 1.458,4.408 0.757,2.192 0,0"
         style="fill:#414141;fill-opacity:1;fill-rule:nonzero;stroke:none"
         id="path4239"
         inkscape:connector-curvature="0" /></g><g
       id="g4241"
       transform="translate(86.078508,743.5676)"><path
         d="m 0,0 6.669,-0.304 c 1.397,2.801 2.607,5.582 3.685,8.342 L 2.197,8.378 C 1.546,5.655 0.789,2.849 0,0"
         style="fill:#414141;fill-opacity:1;fill-rule:nonzero;stroke:none"
         id="path4243"
         inkscape:connector-curvature="0" /></g><g
       id="g4245"
       transform="translate(78.861708,722.5656)"><path
         d="M 0,0 C 2.238,2.479 4.231,5.062 6.118,7.694 L 2.931,7.696 C 2.023,5.127 1.058,2.566 0,0"
         style="fill:#414141;fill-opacity:1;fill-rule:nonzero;stroke:none"
         id="path4247"
         inkscape:connector-curvature="0" /></g><g
       id="g4249"
       transform="translate(28.871008,768.6311)"><path
         d="m 0,0 c 1.509,-2.407 3.611,-5.506 6.31,-9.142 2.683,0.94 5.68,1.878 8.187,2.667 L 12.552,4.007 C 8.944,2.844 3.593,1.424 0,0"
         style="fill:#414141;fill-opacity:1;fill-rule:nonzero;stroke:none"
         id="path4251"
         inkscape:connector-curvature="0" /></g><g
       id="g4253"
       transform="translate(45.574108,774.135)"><path
         d="m 0,0 1.811,-10.676 c 3.394,0.952 7.327,1.915 10.472,2.606 L 12.508,2.983 C 8.555,2.096 4.016,1.158 0,0"
         style="fill:#414141;fill-opacity:1;fill-rule:nonzero;stroke:none"
         id="path4255"
         inkscape:connector-curvature="0" /></g><g
       id="g4257"
       transform="translate(104.21131,782.7834)"><path
         d="m 0,0 c -3.275,-0.098 -6.948,-0.266 -10.846,-0.527 -0.321,-3.16 -0.855,-7.421 -1.662,-12.428 l 10.461,0.512 C -1.098,-8.169 -0.163,-2.135 0,0"
         style="fill:#414141;fill-opacity:1;fill-rule:nonzero;stroke:none"
         id="path4259"
         inkscape:connector-curvature="0" /></g><g
       id="g4261"
       transform="translate(89.096108,755.8049)"><path
         d="m 0,0 8.768,-0.341 c 1.375,3.841 2.48,7.487 3.357,10.899 L 2.007,10.099 C 1.465,6.936 0.788,3.563 0,0"
         style="fill:#414141;fill-opacity:1;fill-rule:nonzero;stroke:none"
         id="path4263"
         inkscape:connector-curvature="0" /></g><g
       id="g4265"
       transform="translate(62.001408,766.9709)"
       style="fill:#414141;fill-opacity:1"><path
         d="m 0,0 c 3.532,0.691 7.447,1.346 10.482,1.769 l 1.71,11.336 C 8.491,12.559 4.2,11.969 0.364,11.216 L 0,0 Z"
         style="fill:#414141;fill-opacity:1;fill-rule:nonzero;stroke:none"
         id="path4267"
         inkscape:connector-curvature="0" /></g><g
       id="g4269"
       transform="translate(29.738208,737.4084)"><path
         d="m 0,0 -2.023,-3.676 c 1.117,-2.23 2.335,-4.359 3.587,-6.431 L 4.64,-5.155 C 3.077,-3.479 1.514,-1.758 0,0"
         style="fill:#eb2027;fill-opacity:1;fill-rule:nonzero;stroke:none"
         id="path4271"
         inkscape:connector-curvature="0" /></g><g
       id="g4273"
       transform="translate(37.171808,729.3029)"><path
         d="m 0,0 -3.615,-5.613 c 1.717,-2.616 3.513,-5.061 5.359,-7.379 l 4.394,6.881 C 4.11,-4.18 2.065,-2.115 0,0"
         style="fill:#eb2027;fill-opacity:1;fill-rule:nonzero;stroke:none"
         id="path4275"
         inkscape:connector-curvature="0" /></g><g
       id="g4277"
       transform="translate(22.642508,746.0979)"><path
         d="m 0,0 c 1.018,-3.182 2.249,-6.202 3.576,-9.156 l 1.603,2.755 C 3.415,-4.326 1.686,-2.205 0,0"
         style="fill:#eb2027;fill-opacity:1;fill-rule:nonzero;stroke:none"
         id="path4279"
         inkscape:connector-curvature="0" /></g><g
       id="g4281"
       transform="translate(84.748408,753.2922)"><path
         d="M 0,0 C 0.81,3.704 2.271,9.045 2.846,12.866 0.008,12.772 -3.728,12.511 -8.228,12.007 -8.766,9.216 -9.461,6.151 -10.037,3.588 L 0,0 Z"
         style="fill:#eb2027;fill-opacity:1;fill-rule:nonzero;stroke:none"
         id="path4283"
         inkscape:connector-curvature="0" /></g><g
       id="g4285"
       transform="translate(70.806108,742.3908)"><path
         d="m 0,0 9.442,-5.751 c 1.222,3.864 2.691,8.259 3.708,12.313 L 3.012,10.361 C 2.13,6.949 0.983,3.066 0,0"
         style="fill:#eb2027;fill-opacity:1;fill-rule:nonzero;stroke:none"
         id="path4287"
         inkscape:connector-curvature="0" /></g><g
       id="g4289"
       transform="translate(52.229408,701.9377)"><path
         d="m 0,0 c 3.217,-2.968 7.966,-6.809 9.73,-8.023 1.562,2.88 3.264,6.14 4.998,9.64 -2.572,1.866 -5.985,4.47 -9.911,7.686 L 0,0 Z"
         style="fill:#eb2027;fill-opacity:1;fill-rule:nonzero;stroke:none"
         id="path4291"
         inkscape:connector-curvature="0" /></g><g
       id="g4293"
       transform="translate(46.233308,720.5422)"><path
         d="m 0,0 -4.7,-7.408 c 2.627,-3.118 5.223,-5.907 7.733,-8.38 l 4.69,8.976 C 5.26,-4.753 2.685,-2.472 0,0"
         style="fill:#eb2027;fill-opacity:1;fill-rule:nonzero;stroke:none"
         id="path4295"
         inkscape:connector-curvature="0" /></g><g
       id="g4297"
       transform="translate(59.194708,714.2463)"><path
         d="m 0,0 9.472,-7.051 c 1.649,3.502 2.722,6.008 4.355,9.903 L 4.863,10.234 C 3.085,6.211 1.23,2.329 0,0"
         style="fill:#eb2027;fill-opacity:1;fill-rule:nonzero;stroke:none"
         id="path4299"
         inkscape:connector-curvature="0" /></g><g
       id="g4301"
       transform="translate(65.767008,728.4025)"><path
         d="m 0,0 8.94,-7.178 c 1.385,3.475 3.037,7.482 4.313,11.174 L 3.74,9.949 C 2.561,6.549 1.16,2.836 0,0"
         style="fill:#eb2027;fill-opacity:1;fill-rule:nonzero;stroke:none"
         id="path4303"
         inkscape:connector-curvature="0" /></g><g
       id="g4305"
       transform="translate(88.023808,770.174)"><path
         d="M 0,0 1.335,11.732 C -2.522,11.397 -5.228,11.064 -9.414,10.521 L -11.292,-0.94 C -6.92,-0.453 -2.631,-0.107 0,0"
         style="fill:#eb2027;fill-opacity:1;fill-rule:nonzero;stroke:none"
         id="path4307"
         inkscape:connector-curvature="0" /></g><g
       transform="scale(1,-1)"
       style="font-style:normal;font-weight:normal;font-size:48px;line-height:125%;font-family:sans-serif;letter-spacing:0px;word-spacing:0px;fill:#676767;fill-opacity:1;stroke:none;stroke-width:1px;stroke-linecap:butt;stroke-linejoin:miter;stroke-opacity:1"
       id="text4629"><path
         d="m 121.51377,-754.08234 0,4.38282 1.98438,0 q 1.10156,0 1.70312,-0.57032 0.60156,-0.57031 0.60156,-1.625 0,-1.04687 -0.60156,-1.61718 -0.60156,-0.57032 -1.70312,-0.57032 l -1.98438,0 z m -1.57812,-1.29687 3.5625,0 q 1.96093,0 2.96093,0.89062 1.00782,0.88282 1.00782,2.59375 0,1.72657 -1.00782,2.60938 -1,0.88281 -2.96093,0.88281 l -1.98438,0 0,4.6875 -1.57812,0 0,-11.66406 z"
         style="font-size:16px;fill:#676767;fill-opacity:1"
         id="path4634" /><path
         d="m 132.35752,-751.45734 q -1.15625,0 -1.82812,0.90625 -0.67188,0.89844 -0.67188,2.46875 0,1.57032 0.66406,2.47657 0.67188,0.89843 1.83594,0.89843 1.14844,0 1.82031,-0.90625 0.67188,-0.90625 0.67188,-2.46875 0,-1.55468 -0.67188,-2.46093 -0.67187,-0.91407 -1.82031,-0.91407 z m 0,-1.21875 q 1.875,0 2.94531,1.21875 1.07032,1.21875 1.07032,3.375 0,2.14844 -1.07032,3.375 -1.07031,1.21875 -2.94531,1.21875 -1.88281,0 -2.95312,-1.21875 -1.0625,-1.22656 -1.0625,-3.375 0,-2.15625 1.0625,-3.375 1.07031,-1.21875 2.95312,-1.21875 z"
         style="font-size:16px;fill:#676767;fill-opacity:1"
         id="path4636" /><path
         d="m 137.91221,-752.46515 1.4375,0 1.79687,6.82813 1.78907,-6.82813 1.69531,0 1.79687,6.82813 1.78907,-6.82813 1.4375,0 -2.28907,8.75 -1.69531,0 -1.88281,-7.17187 -1.89063,7.17187 -1.69531,0 -2.28906,-8.75 z"
         style="font-size:16px;fill:#676767;fill-opacity:1"
         id="path4638" /><path
         d="m 159.32627,-748.44952 0,0.70312 -6.60937,0 q 0.0937,1.48438 0.89062,2.26563 0.80469,0.77343 2.23438,0.77343 0.82812,0 1.60156,-0.20312 0.78125,-0.20313 1.54687,-0.60938 l 0,1.35938 q -0.77343,0.32812 -1.58593,0.5 -0.8125,0.17187 -1.64844,0.17187 -2.09375,0 -3.32031,-1.21875 -1.21875,-1.21875 -1.21875,-3.29687 0,-2.14844 1.15625,-3.40625 1.16406,-1.26563 3.13281,-1.26563 1.76562,0 2.78906,1.14063 1.03125,1.13281 1.03125,3.08594 z m -1.4375,-0.42188 q -0.0156,-1.17969 -0.66406,-1.88281 -0.64063,-0.70313 -1.70313,-0.70313 -1.20312,0 -1.92968,0.67969 -0.71875,0.67969 -0.82813,1.91406 l 5.125,-0.008 z"
         style="font-size:16px;fill:#676767;fill-opacity:1"
         id="path4640" /><path
         d="m 166.75596,-751.1214 q -0.24219,-0.14062 -0.53125,-0.20312 -0.28125,-0.0703 -0.625,-0.0703 -1.21875,0 -1.875,0.79688 -0.64844,0.78906 -0.64844,2.27344 l 0,4.60937 -1.44531,0 0,-8.75 1.44531,0 0,1.35938 q 0.45313,-0.79688 1.17969,-1.17969 0.72656,-0.39063 1.76562,-0.39063 0.14844,0 0.32813,0.0234 0.17969,0.0156 0.39844,0.0547 l 0.008,1.47656 z"
         style="font-size:16px;fill:#676767;fill-opacity:1"
         id="path4642" /><path
         d="m 175.42002,-748.44952 0,0.70312 -6.60937,0 q 0.0937,1.48438 0.89062,2.26563 0.80469,0.77343 2.23438,0.77343 0.82812,0 1.60156,-0.20312 0.78125,-0.20313 1.54687,-0.60938 l 0,1.35938 q -0.77343,0.32812 -1.58593,0.5 -0.8125,0.17187 -1.64844,0.17187 -2.09375,0 -3.32031,-1.21875 -1.21875,-1.21875 -1.21875,-3.29687 0,-2.14844 1.15625,-3.40625 1.16406,-1.26563 3.13281,-1.26563 1.76562,0 2.78906,1.14063 1.03125,1.13281 1.03125,3.08594 z m -1.4375,-0.42188 q -0.0156,-1.17969 -0.66406,-1.88281 -0.64063,-0.70313 -1.70313,-0.70313 -1.20312,0 -1.92968,0.67969 -0.71875,0.67969 -0.82813,1.91406 l 5.125,-0.008 z"
         style="font-size:16px;fill:#676767;fill-opacity:1"
         id="path4644" /><path
         d="m 183.53721,-751.13702 0,-4.73438 1.4375,0 0,12.15625 -1.4375,0 0,-1.3125 q -0.45313,0.78125 -1.14844,1.16406 -0.6875,0.375 -1.65625,0.375 -1.58594,0 -2.58594,-1.26562 -0.99218,-1.26563 -0.99218,-3.32813 0,-2.0625 0.99218,-3.32812 1,-1.26563 2.58594,-1.26563 0.96875,0 1.65625,0.38282 0.69531,0.375 1.14844,1.15625 z m -4.89844,3.05468 q 0,1.58594 0.64844,2.49219 0.65625,0.89844 1.79687,0.89844 1.14063,0 1.79688,-0.89844 0.65625,-0.90625 0.65625,-2.49219 0,-1.58593 -0.65625,-2.48437 -0.65625,-0.90625 -1.79688,-0.90625 -1.14062,0 -1.79687,0.90625 -0.64844,0.89844 -0.64844,2.48437 z"
         style="font-size:16px;fill:#676767;fill-opacity:1"
         id="path4646" /><path
         d="m 194.67002,-749.28546 0,4.27344 2.53125,0 q 1.27344,0 1.88281,-0.52344 0.61719,-0.53125 0.61719,-1.61719 0,-1.09375 -0.61719,-1.60937 -0.60937,-0.52344 -1.88281,-0.52344 l -2.53125,0 z m 0,-4.79688 0,3.51563 2.33594,0 q 1.15625,0 1.71875,-0.42969 0.57031,-0.4375 0.57031,-1.32812 0,-0.88282 -0.57031,-1.32032 -0.5625,-0.4375 -1.71875,-0.4375 l -2.33594,0 z m -1.57812,-1.29687 4.03125,0 q 1.80468,0 2.78125,0.75 0.97656,0.75 0.97656,2.13281 0,1.07031 -0.5,1.70313 -0.5,0.63281 -1.46875,0.78906 1.16406,0.25 1.80469,1.04687 0.64843,0.78907 0.64843,1.97657 0,1.5625 -1.0625,2.41406 -1.0625,0.85156 -3.02343,0.85156 l -4.1875,0 0,-11.66406 z"
         style="font-size:16px;fill:#676767;fill-opacity:1"
         id="path4648" /><path
         d="m 207.63877,-742.90265 q -0.60937,1.5625 -1.1875,2.03906 -0.57812,0.47657 -1.54687,0.47657 l -1.14844,0 0,-1.20313 0.84375,0 q 0.59375,0 0.92187,-0.28125 0.32813,-0.28125 0.72657,-1.32812 l 0.25781,-0.65625 -3.53906,-8.60938 1.52343,0 2.73438,6.84375 2.73437,-6.84375 1.52344,0 -3.84375,9.5625 z"
         style="font-size:16px;fill:#676767;fill-opacity:1"
         id="path4650" /></g></g></svg>